{
  "accessors": [
    {
      "bufferView": 2,
      "componentType": 5126,
      "count": 33228,
      "max": [
        0.03754720091819763,
        0.02419923059642315,
        0.004310459829866886
      ],
      "min": [
        -0.11608324199914932,
        -0.024634700268507004,
        -0.004224132746458054
      ],
      "type": "VEC3"
    },
    {
      "bufferView": 2,
      "byteOffset": 398736,
      "componentType": 5126,
      "count": 33228,
      "max": [
        1.0,
        1.0,
        1.0
      ],
      "min": [
        -1.0,
        -1.0,
        -1.0
      ],
      "type": "VEC3"
    },
    {
      "bufferView": 3,
      "componentType": 5126,
      "count": 33228,
      "max": [
        0.7672213315963745,
        1.0,
        0.9999992251396179,
        1.0
      ],
      "min": [
        -0.8653993606567383,
        -1.0,
        -1.0,
        -1.0
      ],
      "type": "VEC4"
    },
    {
      "bufferView": 1,
      "componentType": 5126,
      "count": 33228,
      "max": [
        0.9957962036132813,
        0.9844932556152344
      ],
      "min": [
        0.010440170764923096,
        0.010369181632995605
      ],
      "type": "VEC2"
    },
    {
      "bufferView": 1,
      "byteOffset": 265824,
      "componentType": 5126,
      "count": 33228,
      "max": [
        0.9957962036132813,
        0.9844932556152344
      ],
      "min": [
        0.010440170764923096,
        0.010369181632995605
      ],
      "type": "VEC2"
    },
    {
      "bufferView": 1,
      "byteOffset": 531648,
      "componentType": 5126,
      "count": 33228,
      "max": [
        0.9957962036132813,
        0.9844932556152344
      ],
      "min": [
        0.010440170764923096,
        0.010369181632995605
      ],
      "type": "VEC2"
    },
    {
      "bufferView": 0,
      "componentType": 5125,
      "count": 52068,
      "type": "SCALAR"
    }
  ],
  "asset": {
    "extras": {
      "author": "Mikhail Antonov (https://sketchfab.com/xeofox)",
      "license": "CC-BY-4.0 (http://creativecommons.org/licenses/by/4.0/)",
      "source": "https://sketchfab.com/3d-models/brush-53a3641006ac48cdb883467c54b9cb95",
      "title": "Brush"
    },
    "generator": "Sketchfab-13.74.0",
    "version": "2.0"
  },
  "bufferViews": [
    {
      "buffer": 0,
      "byteLength": 208272,
      "name": "floatBufferViews",
      "target": 34963
    },
    {
      "buffer": 0,
      "byteLength": 797472,
      "byteOffset": 208272,
      "byteStride": 8,
      "name": "floatBufferViews",
      "target": 34962
    },
    {
      "buffer": 0,
      "byteLength": 797472,
      "byteOffset": 1005744,
      "byteStride": 12,
      "name": "floatBufferViews",
      "target": 34962
    },
    {
      "buffer": 0,
      "byteLength": 531648,
      "byteOffset": 1803216,
      "byteStride": 16,
      "name": "floatBufferViews",
      "target": 34962
    }
  ],
  "buffers": [
    {
      "byteLength": 2334864,
      "uri": "scene.bin"
    }
  ],
  "images": [
    {
      "uri": "textures/brush_baseColor.png"
    },
    {
      "uri": "textures/brush_metallicRoughness.png"
    },
    {
      "uri": "textures/brush_normal.png"
    }
  ],
  "materials": [
    {
      "doubleSided": true,
      "name": "brush",
      "normalTexture": {
        "index": 2,
        "texCoord": 1
      },
      "pbrMetallicRoughness": {
        "baseColorTexture": {
          "index": 0
        },
        "metallicRoughnessTexture": {
          "index": 1
        }
      }
    }
  ],
  "meshes": [
    {
      "name": "brushh_brush_0",
      "primitives": [
        {
          "attributes": {
            "NORMAL": 1,
            "POSITION": 0,
            "TANGENT": 2,
            "TEXCOORD_0": 3,
            "TEXCOORD_1": 4,
            "TEXCOORD_2": 5
          },
          "indices": 6,
          "material": 0,
          "mode": 4
        }
      ]
    }
  ],
  "nodes": [
    {
      "children": [
        1
      ],
      "matrix": [
        1.0,
        0.0,
        0.0,
        0.0,
        0.0,
        2.220446049250313e-16,
        -1.0,
        0.0,
        0.0,
        1.0,
        2.220446049250313e-16,
        0.0,
        0.0,
        0.0,
        0.0,
        1.0
      ],
      "name": "Sketchfab_model"
    },
    {
      "children": [
        2
      ],
      "matrix": [
        0.009999999776482582,
        0.0,
        0.0,
        0.0,
        0.0,
        0.0,
        0.009999999776482582,
        0.0,
        0.0,
        -0.009999999776482582,
        0.0,
        0.0,
        0.0,
        0.0,
        0.0,
        1.0
      ],
      "name": "brush.fbx"
    },
    {
      "children": [
        3
      ],
      "name": "RootNode"
    },
    {
      "children": [
        4
      ],
      "matrix": [
        -80.74614753080627,
        2.8931799622711196e-06,
        -58.99203046965973,
        0.0,
        58.99203046964408,
        7.696164598947064e-05,
        -80.74614753078107,
        0.0,
        4.306510628659943e-05,
        -99.99999999997034,
        -6.38503098393528e-05,
        0.0,
        -8.655936241149902,
        80.33807373046875,
        -41.78749465942383,
        1.0
      ],
      "name": "brushh"
    },
    {
      "mesh": 0,
      "name": "brushh_brush_0"
    }
  ],
  "samplers": [
    {
      "magFilter": 9729,
      "minFilter": 9987,
      "wrapS": 10497,
      "wrapT": 10497
    }
  ],
  "scene": 0,
  "scenes": [
    {
      "name": "Sketchfab_Scene",
      "nodes": [
        0
      ]
    }
  ],
  "textures": [
    {
      "sampler": 0,
      "source": 0
    },
    {
      "sampler": 0,
      "source": 1
    },
    {
      "sampler": 0,
      "source": 2
    }
  ]
}
