{
  "accessors": [
    {
      "bufferView": 2,
      "componentType": 5126,
      "count": 388,
      "max": [
        0.7442291378974915,
        0.6135673522949219,
        2.2390332221984863
      ],
      "min": [
        -1.0014582872390747,
        -0.6135673522949219,
        -0.8728437423706055
      ],
      "type": "VEC3"
    },
    {
      "bufferView": 2,
      "byteOffset": 4656,
      "componentType": 5126,
      "count": 388,
      "max": [
        1.0,
        1.0,
        1.0
      ],
      "min": [
        -1.0,
        -1.0,
        -1.0
      ],
      "type": "VEC3"
    },
    {
      "bufferView": 1,
      "componentType": 5126,
      "count": 388,
      "max": [
        1.0,
        1.0
      ],
      "min": [
        0.0,
        0.01000000536441803
      ],
      "type": "VEC2"
    },
    {
      "bufferView": 0,
      "componentType": 5125,
      "count": 1644,
      "type": "SCALAR"
    },
    {
      "bufferView": 2,
      "byteOffset": 9312,
      "componentType": 5126,
      "count": 388,
      "max": [
        0.7442291378974915,
        0.6135673522949219,
        2.2390332221984863
      ],
      "min": [
        -1.0014582872390747,
        -0.6135673522949219,
        -0.8728437423706055
      ],
      "type": "VEC3"
    },
    {
      "bufferView": 2,
      "byteOffset": 13968,
      "componentType": 5126,
      "count": 388,
      "max": [
        1.0,
        1.0,
        1.0
      ],
      "min": [
        -1.0,
        -1.0,
        -1.0
      ],
      "type": "VEC3"
    },
    {
      "bufferView": 1,
      "byteOffset": 3104,
      "componentType": 5126,
      "count": 388,
      "max": [
        1.0,
        1.0
      ],
      "min": [
        0.0,
        0.01000000536441803
      ],
      "type": "VEC2"
    },
    {
      "bufferView": 0,
      "byteOffset": 6576,
      "componentType": 5125,
      "count": 1644,
      "type": "SCALAR"
    },
    {
      "bufferView": 2,
      "byteOffset": 18624,
      "componentType": 5126,
      "count": 441,
      "max": [
        0.8491753339767456,
        0.8491753339767456,
        0.8491753339767456
      ],
      "min": [
        -0.8491753339767456,
        -0.8491753339767456,
        -0.8491753339767456
      ],
      "type": "VEC3"
    },
    {
      "bufferView": 2,
      "byteOffset": 23916,
      "componentType": 5126,
      "count": 441,
      "max": [
        1.0,
        1.0,
        1.0
      ],
      "min": [
        -1.0,
        -1.0,
        -1.0
      ],
      "type": "VEC3"
    },
    {
      "bufferView": 1,
      "byteOffset": 6208,
      "componentType": 5126,
      "count": 441,
      "max": [
        0.875,
        1.0
      ],
      "min": [
        0.125,
        0.0
      ],
      "type": "VEC2"
    },
    {
      "bufferView": 0,
      "byteOffset": 13152,
      "componentType": 5125,
      "count": 2304,
      "type": "SCALAR"
    },
    {
      "bufferView": 2,
      "byteOffset": 29208,
      "componentType": 5126,
      "count": 441,
      "max": [
        0.8491753339767456,
        0.8491753339767456,
        0.8491753339767456
      ],
      "min": [
        -0.8491753339767456,
        -0.8491753339767456,
        -0.8491753339767456
      ],
      "type": "VEC3"
    },
    {
      "bufferView": 2,
      "byteOffset": 34500,
      "componentType": 5126,
      "count": 441,
      "max": [
        1.0,
        1.0,
        1.0
      ],
      "min": [
        -1.0,
        -1.0,
        -1.0
      ],
      "type": "VEC3"
    },
    {
      "bufferView": 1,
      "byteOffset": 9736,
      "componentType": 5126,
      "count": 441,
      "max": [
        0.875,
        1.0
      ],
      "min": [
        0.125,
        0.0
      ],
      "type": "VEC2"
    },
    {
      "bufferView": 0,
      "byteOffset": 22368,
      "componentType": 5125,
      "count": 2304,
      "type": "SCALAR"
    },
    {
      "bufferView": 2,
      "byteOffset": 39792,
      "componentType": 5126,
      "count": 576,
      "max": [
        0.8399999737739563,
        0.04999999701976776,
        0.8399999737739563
      ],
      "min": [
        -0.8399999737739563,
        -0.04999999701976776,
        -0.8399999737739563
      ],
      "type": "VEC3"
    },
    {
      "bufferView": 2,
      "byteOffset": 46704,
      "componentType": 5126,
      "count": 576,
      "max": [
        1.0,
        0.9999423027038574,
        1.0
      ],
      "min": [
        -1.0,
        -0.9999423027038574,
        -1.0
      ],
      "type": "VEC3"
    },
    {
      "bufferView": 0,
      "byteOffset": 31584,
      "componentType": 5125,
      "count": 3456,
      "type": "SCALAR"
    },
    {
      "bufferView": 2,
      "byteOffset": 53616,
      "componentType": 5126,
      "count": 576,
      "max": [
        0.8399999737739563,
        0.04999999701976776,
        0.8399999737739563
      ],
      "min": [
        -0.8399999737739563,
        -0.04999999701976776,
        -0.8399999737739563
      ],
      "type": "VEC3"
    },
    {
      "bufferView": 2,
      "byteOffset": 60528,
      "componentType": 5126,
      "count": 576,
      "max": [
        1.0,
        0.9999423027038574,
        1.0
      ],
      "min": [
        -1.0,
        -0.9999423027038574,
        -1.0
      ],
      "type": "VEC3"
    },
    {
      "bufferView": 0,
      "byteOffset": 45408,
      "componentType": 5125,
      "count": 3456,
      "type": "SCALAR"
    },
    {
      "bufferView": 2,
      "byteOffset": 67440,
      "componentType": 5126,
      "count": 576,
      "max": [
        0.8399999737739563,
        0.04999999701976776,
        0.8399999737739563
      ],
      "min": [
        -0.8399999737739563,
        -0.04999999701976776,
        -0.8399999737739563
      ],
      "type": "VEC3"
    },
    {
      "bufferView": 2,
      "byteOffset": 74352,
      "componentType": 5126,
      "count": 576,
      "max": [
        1.0,
        0.9999423027038574,
        1.0
      ],
      "min": [
        -1.0,
        -0.9999423027038574,
        -1.0
      ],
      "type": "VEC3"
    },
    {
      "bufferView": 0,
      "byteOffset": 59232,
      "componentType": 5125,
      "count": 3456,
      "type": "SCALAR"
    },
    {
      "bufferView": 2,
      "byteOffset": 81264,
      "componentType": 5126,
      "count": 576,
      "max": [
        0.8399999737739563,
        0.04999999701976776,
        0.8399999737739563
      ],
      "min": [
        -0.8399999737739563,
        -0.04999999701976776,
        -0.8399999737739563
      ],
      "type": "VEC3"
    },
    {
      "bufferView": 2,
      "byteOffset": 88176,
      "componentType": 5126,
      "count": 576,
      "max": [
        1.0,
        0.9999423027038574,
        1.0
      ],
      "min": [
        -1.0,
        -0.9999423027038574,
        -1.0
      ],
      "type": "VEC3"
    },
    {
      "bufferView": 0,
      "byteOffset": 73056,
      "componentType": 5125,
      "count": 3456,
      "type": "SCALAR"
    },
    {
      "bufferView": 2,
      "byteOffset": 95088,
      "componentType": 5126,
      "count": 441,
      "max": [
        0.8491753339767456,
        0.8491753339767456,
        0.8491753339767456
      ],
      "min": [
        -0.8491753339767456,
        -0.8491753339767456,
        -0.8491753339767456
      ],
      "type": "VEC3"
    },
    {
      "bufferView": 2,
      "byteOffset": 100380,
      "componentType": 5126,
      "count": 441,
      "max": [
        1.0,
        1.0,
        1.0
      ],
      "min": [
        -1.0,
        -1.0,
        -1.0
      ],
      "type": "VEC3"
    },
    {
      "bufferView": 1,
      "byteOffset": 13264,
      "componentType": 5126,
      "count": 441,
      "max": [
        0.875,
        1.0
      ],
      "min": [
        0.125,
        0.0
      ],
      "type": "VEC2"
    },
    {
      "bufferView": 0,
      "byteOffset": 86880,
      "componentType": 5125,
      "count": 2304,
      "type": "SCALAR"
    },
    {
      "bufferView": 2,
      "byteOffset": 105672,
      "componentType": 5126,
      "count": 441,
      "max": [
        0.8491753339767456,
        0.8491753339767456,
        0.8491753339767456
      ],
      "min": [
        -0.8491753339767456,
        -0.8491753339767456,
        -0.8491753339767456
      ],
      "type": "VEC3"
    },
    {
      "bufferView": 2,
      "byteOffset": 110964,
      "componentType": 5126,
      "count": 441,
      "max": [
        1.0,
        1.0,
        1.0
      ],
      "min": [
        -1.0,
        -1.0,
        -1.0
      ],
      "type": "VEC3"
    },
    {
      "bufferView": 1,
      "byteOffset": 16792,
      "componentType": 5126,
      "count": 441,
      "max": [
        0.875,
        1.0
      ],
      "min": [
        0.125,
        0.0
      ],
      "type": "VEC2"
    },
    {
      "bufferView": 0,
      "byteOffset": 96096,
      "componentType": 5125,
      "count": 2304,
      "type": "SCALAR"
    },
    {
      "bufferView": 2,
      "byteOffset": 116256,
      "componentType": 5126,
      "count": 388,
      "max": [
        0.7442291378974915,
        0.6135673522949219,
        2.2390332221984863
      ],
      "min": [
        -1.0014582872390747,
        -0.6135673522949219,
        -0.8728437423706055
      ],
      "type": "VEC3"
    },
    {
      "bufferView": 2,
      "byteOffset": 120912,
      "componentType": 5126,
      "count": 388,
      "max": [
        1.0,
        1.0,
        1.0
      ],
      "min": [
        -1.0,
        -1.0,
        -1.0
      ],
      "type": "VEC3"
    },
    {
      "bufferView": 1,
      "byteOffset": 20320,
      "componentType": 5126,
      "count": 388,
      "max": [
        1.0,
        1.0
      ],
      "min": [
        0.0,
        0.01000000536441803
      ],
      "type": "VEC2"
    },
    {
      "bufferView": 0,
      "byteOffset": 105312,
      "componentType": 5125,
      "count": 1644,
      "type": "SCALAR"
    },
    {
      "bufferView": 2,
      "byteOffset": 125568,
      "componentType": 5126,
      "count": 388,
      "max": [
        0.7442291378974915,
        0.6135673522949219,
        2.2390332221984863
      ],
      "min": [
        -1.0014582872390747,
        -0.6135673522949219,
        -0.8728437423706055
      ],
      "type": "VEC3"
    },
    {
      "bufferView": 2,
      "byteOffset": 130224,
      "componentType": 5126,
      "count": 388,
      "max": [
        1.0,
        1.0,
        1.0
      ],
      "min": [
        -1.0,
        -1.0,
        -1.0
      ],
      "type": "VEC3"
    },
    {
      "bufferView": 1,
      "byteOffset": 23424,
      "componentType": 5126,
      "count": 388,
      "max": [
        1.0,
        1.0
      ],
      "min": [
        0.0,
        0.01000000536441803
      ],
      "type": "VEC2"
    },
    {
      "bufferView": 0,
      "byteOffset": 111888,
      "componentType": 5125,
      "count": 1644,
      "type": "SCALAR"
    }
  ],
  "asset": {
    "extras": {
      "author": "TiimB (https://sketchfab.com/TiimB)",
      "license": "CC-BY-4.0 (http://creativecommons.org/licenses/by/4.0/)",
      "source": "https://sketchfab.com/3d-models/coach-whistle-3e953bfa5f52463197a6c9cdbaab97fe",
      "title": "Coach Whistle"
    },
    "generator": "Sketchfab-12.65.0",
    "version": "2.0"
  },
  "bufferViews": [
    {
      "buffer": 0,
      "byteLength": 118464,
      "name": "floatBufferViews",
      "target": 34963
    },
    {
      "buffer": 0,
      "byteLength": 26528,
      "byteOffset": 118464,
      "byteStride": 8,
      "name": "floatBufferViews",
      "target": 34962
    },
    {
      "buffer": 0,
      "byteLength": 134880,
      "byteOffset": 144992,
      "byteStride": 12,
      "name": "floatBufferViews",
      "target": 34962
    }
  ],
  "buffers": [
    {
      "byteLength": 279872,
      "uri": "scene.bin"
    }
  ],
  "materials": [
    {
      "doubleSided": true,
      "name": "WhistleShape",
      "pbrMetallicRoughness": {
        "baseColorFactor": [
          0.40625,
          0.40625,
          0.40625,
          1.0
        ],
        "roughnessFactor": 0.4285442073
      }
    },
    {
      "doubleSided": true,
      "name": "AttachmentShape",
      "pbrMetallicRoughness": {
        "baseColorFactor": [
          0.33795731704000004,
          0.33795731704000004,
          0.33795731704000004,
          1.0
        ],
        "metallicFactor": 0.8553734756,
        "roughnessFactor": 0.6
      }
    },
    {
      "doubleSided": true,
      "name": "KeyringShape",
      "pbrMetallicRoughness": {
        "baseColorFactor": [
          0.36722560976,
          0.36722560976,
          0.36722560976,
          1.0
        ],
        "roughnessFactor": 0.263910061
      }
    }
  ],
  "meshes": [
    {
      "name": "WhistleShape_4_0",
      "primitives": [
        {
          "attributes": {
            "NORMAL": 1,
            "POSITION": 0,
            "TEXCOORD_0": 2
          },
          "indices": 3,
          "material": 0,
          "mode": 4
        }
      ]
    },
    {
      "name": "WhistleShape_4_0",
      "primitives": [
        {
          "attributes": {
            "NORMAL": 5,
            "POSITION": 4,
            "TEXCOORD_0": 6
          },
          "indices": 7,
          "material": 0,
          "mode": 4
        }
      ]
    },
    {
      "name": "AttachmentShape_6_0",
      "primitives": [
        {
          "attributes": {
            "NORMAL": 9,
            "POSITION": 8,
            "TEXCOORD_0": 10
          },
          "indices": 11,
          "material": 1,
          "mode": 4
        }
      ]
    },
    {
      "name": "AttachmentShape_6_0",
      "primitives": [
        {
          "attributes": {
            "NORMAL": 13,
            "POSITION": 12,
            "TEXCOORD_0": 14
          },
          "indices": 15,
          "material": 1,
          "mode": 4
        }
      ]
    },
    {
      "name": "KeyringShape_8_0",
      "primitives": [
        {
          "attributes": {
            "NORMAL": 17,
            "POSITION": 16
          },
          "indices": 18,
          "material": 2,
          "mode": 4
        }
      ]
    },
    {
      "name": "KeyringShape_8_0",
      "primitives": [
        {
          "attributes": {
            "NORMAL": 20,
            "POSITION": 19
          },
          "indices": 21,
          "material": 2,
          "mode": 4
        }
      ]
    },
    {
      "name": "KeyringShape_8_0",
      "primitives": [
        {
          "attributes": {
            "NORMAL": 23,
            "POSITION": 22
          },
          "indices": 24,
          "material": 2,
          "mode": 4
        }
      ]
    },
    {
      "name": "KeyringShape_8_0",
      "primitives": [
        {
          "attributes": {
            "NORMAL": 26,
            "POSITION": 25
          },
          "indices": 27,
          "material": 2,
          "mode": 4
        }
      ]
    },
    {
      "name": "AttachmentShape_6_0",
      "primitives": [
        {
          "attributes": {
            "NORMAL": 29,
            "POSITION": 28,
            "TEXCOORD_0": 30
          },
          "indices": 31,
          "material": 1,
          "mode": 4
        }
      ]
    },
    {
      "name": "AttachmentShape_6_0",
      "primitives": [
        {
          "attributes": {
            "NORMAL": 33,
            "POSITION": 32,
            "TEXCOORD_0": 34
          },
          "indices": 35,
          "material": 1,
          "mode": 4
        }
      ]
    },
    {
      "name": "WhistleShape_4_0",
      "primitives": [
        {
          "attributes": {
            "NORMAL": 37,
            "POSITION": 36,
            "TEXCOORD_0": 38
          },
          "indices": 39,
          "material": 0,
          "mode": 4
        }
      ]
    },
    {
      "name": "WhistleShape_4_0",
      "primitives": [
        {
          "attributes": {
            "NORMAL": 41,
            "POSITION": 40,
            "TEXCOORD_0": 42
          },
          "indices": 43,
          "material": 0,
          "mode": 4
        }
      ]
    }
  ],
  "nodes": [
    {
      "children": [
        1
      ],
      "matrix": [
        1.0,
        0.0,
        0.0,
        0.0,
        0.0,
        2.220446049250313e-16,
        -1.0,
        0.0,
        0.0,
        1.0,
        2.220446049250313e-16,
        0.0,
        0.0,
        0.0,
        0.0,
        1.0
      ],
      "name": "Sketchfab_model"
    },
    {
      "children": [
        2
      ],
      "name": "879383037058410a86322147d6bbc873.abc.cleaner.materialmerger.gles"
    },
    {
      "children": [
        3
      ],
      "matrix": [
        1.0,
        0.0,
        0.0,
        0.0,
        0.0,
        2.220446049250313e-16,
        1.0,
        0.0,
        0.0,
        -1.0,
        2.220446049250313e-16,
        0.0,
        0.0,
        0.0,
        0.0,
        1.0
      ],
      "name": "Object_2"
    },
    {
      "children": [
        4,
        11,
        18,
        25,
        32,
        39
      ],
      "name": "Object_3"
    },
    {
      "children": [
        5,
        8
      ],
      "matrix": [
        -4.371138828673793e-08,
        -1.0,
        0.0,
        0.0,
        1.0,
        -4.371138828673793e-08,
        0.0,
        0.0,
        0.0,
        0.0,
        1.0,
        0.0,
        0.0,
        0.0,
        0.0,
        1.0
      ],
      "name": "Object_4"
    },
    {
      "children": [
        6
      ],
      "name": "TimeframeMainGroup"
    },
    {
      "children": [
        7
      ],
      "name": "Object_6"
    },
    {
      "mesh": 0,
      "name": "WhistleShape_4_0"
    },
    {
      "children": [
        9
      ],
      "name": "TimeframeMainGroup"
    },
    {
      "children": [
        10
      ],
      "name": "Object_9"
    },
    {
      "mesh": 1,
      "name": "WhistleShape_4_0"
    },
    {
      "children": [
        12,
        15
      ],
      "matrix": [
        0.23151491582393646,
        0.0,
        0.0,
        0.0,
        0.0,
        0.23151491582393646,
        0.0,
        0.0,
        0.0,
        0.0,
        0.23151491582393646,
        0.0,
        0.012746306136250496,
        0.11650542914867401,
        -0.9526153802871704,
        1.0
      ],
      "name": "Object_11"
    },
    {
      "children": [
        13
      ],
      "name": "TimeframeMainGroup"
    },
    {
      "children": [
        14
      ],
      "name": "Object_13"
    },
    {
      "mesh": 2,
      "name": "AttachmentShape_6_0"
    },
    {
      "children": [
        16
      ],
      "name": "TimeframeMainGroup"
    },
    {
      "children": [
        17
      ],
      "name": "Object_16"
    },
    {
      "mesh": 3,
      "name": "AttachmentShape_6_0"
    },
    {
      "children": [
        19,
        22
      ],
      "matrix": [
        1.0,
        0.0,
        0.0,
        0.0,
        0.0,
        -1.6292068494294654e-07,
        1.0,
        0.0,
        0.0,
        -1.0,
        -1.6292068494294654e-07,
        0.0,
        0.012746306136250496,
        -0.6579795479774475,
        -1.005074143409729,
        1.0
      ],
      "name": "Object_18"
    },
    {
      "children": [
        20
      ],
      "name": "TimeframeMainGroup"
    },
    {
      "children": [
        21
      ],
      "name": "Object_20"
    },
    {
      "mesh": 4,
      "name": "KeyringShape_8_0"
    },
    {
      "children": [
        23
      ],
      "name": "TimeframeMainGroup"
    },
    {
      "children": [
        24
      ],
      "name": "Object_23"
    },
    {
      "mesh": 5,
      "name": "KeyringShape_8_0"
    },
    {
      "children": [
        26,
        29
      ],
      "matrix": [
        1.0,
        0.0,
        0.0,
        0.0,
        0.0,
        -1.6292068494294654e-07,
        1.0,
        0.0,
        0.0,
        -1.0,
        -1.6292068494294654e-07,
        0.0,
        0.012746306136250496,
        -0.6579795479774475,
        -1.005074143409729,
        1.0
      ],
      "name": "Object_25"
    },
    {
      "children": [
        27
      ],
      "name": "TimeframeMainGroup"
    },
    {
      "children": [
        28
      ],
      "name": "Object_27"
    },
    {
      "mesh": 6,
      "name": "KeyringShape_8_0"
    },
    {
      "children": [
        30
      ],
      "name": "TimeframeMainGroup"
    },
    {
      "children": [
        31
      ],
      "name": "Object_30"
    },
    {
      "mesh": 7,
      "name": "KeyringShape_8_0"
    },
    {
      "children": [
        33,
        36
      ],
      "matrix": [
        0.23151491582393646,
        0.0,
        0.0,
        0.0,
        0.0,
        0.23151491582393646,
        0.0,
        0.0,
        0.0,
        0.0,
        0.23151491582393646,
        0.0,
        0.012746306136250496,
        0.11650542914867401,
        -0.9526153802871704,
        1.0
      ],
      "name": "Object_32"
    },
    {
      "children": [
        34
      ],
      "name": "TimeframeMainGroup"
    },
    {
      "children": [
        35
      ],
      "name": "Object_34"
    },
    {
      "mesh": 8,
      "name": "AttachmentShape_6_0"
    },
    {
      "children": [
        37
      ],
      "name": "TimeframeMainGroup"
    },
    {
      "children": [
        38
      ],
      "name": "Object_37"
    },
    {
      "mesh": 9,
      "name": "AttachmentShape_6_0"
    },
    {
      "children": [
        40,
        43
      ],
      "matrix": [
        -4.371138828673793e-08,
        -1.0,
        0.0,
        0.0,
        1.0,
        -4.371138828673793e-08,
        0.0,
        0.0,
        0.0,
        0.0,
        1.0,
        0.0,
        0.0,
        0.0,
        0.0,
        1.0
      ],
      "name": "Object_39"
    },
    {
      "children": [
        41
      ],
      "name": "TimeframeMainGroup"
    },
    {
      "children": [
        42
      ],
      "name": "Object_41"
    },
    {
      "mesh": 10,
      "name": "WhistleShape_4_0"
    },
    {
      "children": [
        44
      ],
      "name": "TimeframeMainGroup"
    },
    {
      "children": [
        45
      ],
      "name": "Object_44"
    },
    {
      "mesh": 11,
      "name": "WhistleShape_4_0"
    }
  ],
  "scene": 0,
  "scenes": [
    {
      "name": "Sketchfab_Scene",
      "nodes": [
        0
      ]
    }
  ]
}
