{
  "accessors": [
    {
      "bufferView": 2,
      "componentType": 5126,
      "count": 2474,
      "max": [
        0.6836072206497192,
        6.984653472900391,
        2.8237454891204834
      ],
      "min": [
        -0.16734708845615387,
        6.671362400054932,
        -2.8909261226654053
      ],
      "type": "VEC3"
    },
    {
      "bufferView": 2,
      "byteOffset": 29688,
      "componentType": 5126,
      "count": 2474,
      "max": [
        1.0,
        1.0,
        1.0
      ],
      "min": [
        -1.0,
        -1.0,
        -1.0
      ],
      "type": "VEC3"
    },
    {
      "bufferView": 1,
      "componentType": 5126,
      "count": 2474,
      "max": [
        0.9980080723762512,
        0.9980080127716064
      ],
      "min": [
        0.0018694127211347222,
        0.0019536300096660852
      ],
      "type": "VEC2"
    },
    {
      "bufferView": 0,
      "componentType": 5125,
      "count": 8496,
      "type": "SCALAR"
    },
    {
      "bufferView": 2,
      "byteOffset": 59376,
      "componentType": 5126,
      "count": 2078,
      "max": [
        1.0707433223724365,
        7.675168514251709,
        3.8897387981414795
      ],
      "min": [
        -1.0707433223724365,
        1.2698602676391602,
        -3.8897387981414795
      ],
      "type": "VEC3"
    },
    {
      "bufferView": 2,
      "byteOffset": 84312,
      "componentType": 5126,
      "count": 2078,
      "max": [
        1.0,
        1.0,
        1.0
      ],
      "min": [
        -1.0,
        -1.0,
        -1.0
      ],
      "type": "VEC3"
    },
    {
      "bufferView": 1,
      "byteOffset": 19792,
      "componentType": 5126,
      "count": 2078,
      "max": [
        7.7848711013793945,
        8.174732208251953
      ],
      "min": [
        -6.7848711013793945,
        -7.174732208251953
      ],
      "type": "VEC2"
    },
    {
      "bufferView": 0,
      "byteOffset": 33984,
      "componentType": 5125,
      "count": 10800,
      "type": "SCALAR"
    }
  ],
  "asset": {
    "extras": {
      "author": "Bryan (https://sketchfab.com/BryanSanchinolo)",
      "license": "CC-BY-4.0 (http://creativecommons.org/licenses/by/4.0/)",
      "source": "https://sketchfab.com/3d-models/briefcase-2b576e4feafc42cb9064d0e8724dc54e",
      "title": "Briefcase"
    },
    "generator": "Sketchfab-12.65.0",
    "version": "2.0"
  },
  "bufferViews": [
    {
      "buffer": 0,
      "byteLength": 77184,
      "name": "floatBufferViews",
      "target": 34963
    },
    {
      "buffer": 0,
      "byteLength": 36416,
      "byteOffset": 77184,
      "byteStride": 8,
      "name": "floatBufferViews",
      "target": 34962
    },
    {
      "buffer": 0,
      "byteLength": 109248,
      "byteOffset": 113600,
      "byteStride": 12,
      "name": "floatBufferViews",
      "target": 34962
    }
  ],
  "buffers": [
    {
      "byteLength": 222848,
      "uri": "scene.bin"
    }
  ],
  "extensionsRequired": [
    "KHR_materials_pbrSpecularGlossiness"
  ],
  "extensionsUsed": [
    "KHR_materials_pbrSpecularGlossiness"
  ],
  "images": [
    {
      "uri": "textures/Team3_Sanchez_BriefcaseLeather_diffuse.jpeg"
    }
  ],
  "materials": [
    {
      "doubleSided": true,
      "extensions": {
        "KHR_materials_pbrSpecularGlossiness": {
          "diffuseFactor": [
            0.7411,
            0.5723,
            0.0289,
            1.0
          ],
          "glossinessFactor": 1.0,
          "specularFactor": [
            1.0,
            1.0,
            1.0
          ]
        }
      },
      "name": "Team3_Sanchez_BriefcaseLocks"
    },
    {
      "doubleSided": true,
      "extensions": {
        "KHR_materials_pbrSpecularGlossiness": {
          "diffuseFactor": [
            0.06878810975609756,
            0.06878810975609756,
            0.06878810975609756,
            1.0
          ],
          "diffuseTexture": {
            "index": 0
          },
          "glossinessFactor": 0.5017149390243902,
          "specularFactor": [
            0.0,
            0.0,
            0.0
          ]
        }
      },
      "name": "Team3_Sanchez_BriefcaseLeather"
    }
  ],
  "meshes": [
    {
      "name": "Team3_Sanchez_Briefcase_Team3_Sanchez_BriefcaseLocks_0",
      "primitives": [
        {
          "attributes": {
            "NORMAL": 1,
            "POSITION": 0,
            "TEXCOORD_0": 2
          },
          "indices": 3,
          "material": 0,
          "mode": 4
        }
      ]
    },
    {
      "name": "Team3_Sanchez_Briefcase_Team3_Sanchez_BriefcaseLeather_0",
      "primitives": [
        {
          "attributes": {
            "NORMAL": 5,
            "POSITION": 4,
            "TEXCOORD_0": 6
          },
          "indices": 7,
          "material": 1,
          "mode": 4
        }
      ]
    }
  ],
  "nodes": [
    {
      "children": [
        1
      ],
      "matrix": [
        1.0,
        0.0,
        0.0,
        0.0,
        0.0,
        2.220446049250313e-16,
        -1.0,
        0.0,
        0.0,
        1.0,
        2.220446049250313e-16,
        0.0,
        0.0,
        0.0,
        0.0,
        1.0
      ],
      "name": "Sketchfab_model"
    },
    {
      "children": [
        2
      ],
      "matrix": [
        1.0,
        0.0,
        0.0,
        0.0,
        0.0,
        0.0,
        1.0,
        0.0,
        0.0,
        -1.0,
        0.0,
        0.0,
        0.0,
        0.0,
        0.0,
        1.0
      ],
      "name": "363db233b91d4c98927331dbd08abbe8.fbx"
    },
    {
      "children": [
        3
      ],
      "name": "RootNode"
    },
    {
      "children": [
        4,
        5
      ],
      "name": "Team3_Sanchez_Briefcase"
    },
    {
      "mesh": 0,
      "name": "Team3_Sanchez_Briefcase_Team3_Sanchez_BriefcaseLocks_0"
    },
    {
      "mesh": 1,
      "name": "Team3_Sanchez_Briefcase_Team3_Sanchez_BriefcaseLeather_0"
    }
  ],
  "samplers": [
    {
      "magFilter": 9729,
      "minFilter": 9987,
      "wrapS": 10497,
      "wrapT": 10497
    }
  ],
  "scene": 0,
  "scenes": [
    {
      "name": "Sketchfab_Scene",
      "nodes": [
        0
      ]
    }
  ],
  "textures": [
    {
      "sampler": 0,
      "source": 0
    }
  ]
}
