<svg width="57" height="57" xmlns="http://www.w3.org/2000/svg" xmlns:xlink="http://www.w3.org/1999/xlink" xml:space="preserve" overflow="hidden"><g transform="translate(-221 -283)"><path d="M249.504 291.312C238.354 291.312 229.316 300.351 229.316 311.5 229.316 322.649 238.354 331.688 249.504 331.688 260.653 331.688 269.691 322.649 269.691 311.5 269.679 300.356 260.648 291.325 249.504 291.312ZM264.916 302.586C265.571 303.712 266.1 304.907 266.493 306.149L260.268 306.149C259.284 306.149 258.486 305.351 258.486 304.367 258.486 303.383 259.284 302.586 260.268 302.586ZM246.385 299.031C247.369 299.031 248.166 299.829 248.166 300.812 248.166 301.796 247.369 302.594 246.385 302.594L242.078 302.594C241.094 302.594 240.297 303.391 240.297 304.375 240.297 305.359 241.094 306.156 242.078 306.156L252.766 306.156C253.749 306.156 254.547 306.954 254.547 307.938 254.547 308.921 253.749 309.719 252.766 309.719L231.78 309.719C232.186 305.688 233.957 301.917 236.8 299.031ZM239.486 316.844C240.47 316.844 241.268 317.641 241.268 318.625 241.268 319.609 240.47 320.406 239.486 320.406L234.087 320.406C233.432 319.28 232.904 318.086 232.511 316.844ZM248.609 323.969C247.626 323.969 246.828 323.171 246.828 322.188 246.828 321.204 247.626 320.406 248.609 320.406L259.297 320.406C260.281 320.406 261.078 319.609 261.078 318.625 261.078 317.641 260.281 316.844 259.297 316.844L257.961 316.844C256.977 316.844 256.18 316.046 256.18 315.062 256.18 314.079 256.977 313.281 257.961 313.281L267.223 313.281C266.819 317.312 265.048 321.082 262.206 323.969Z" fill="#5A3FFF"/></g></svg>