<svg width="950" height="366" xmlns="http://www.w3.org/2000/svg" xmlns:xlink="http://www.w3.org/1999/xlink" xml:space="preserve" overflow="hidden"><g transform="translate(-432 -1877)"><path d="M505.67 1988.17C516.035 1988.35 524.25 1991.36 530.317 1997.18 536.385 2003 539.994 2010.54 541.146 2019.8L544.17 2043.45C542.28 2047.34 540.63 2051.17 539.22 2054.93 537.811 2058.69 536.436 2062.93 535.095 2067.65 534.505 2069.8 534.998 2071.27 536.574 2072.05 538.149 2072.83 539.398 2072.37 540.32 2070.67 543.855 2061.72 547.511 2052.88 551.286 2044.17 555.062 2035.45 559.198 2026.96 563.695 2018.7 567.465 2012.27 572.301 2009.11 578.202 2009.21 584.103 2009.31 589.076 2012.47 593.12 2018.7 595.212 2022.03 597.423 2025.95 599.755 2030.45 602.087 2034.96 604.367 2039.84 606.595 2045.1 605.96 2047.99 605.169 2051.41 604.224 2055.34 603.278 2059.27 602.694 2062.82 602.47 2066 602.213 2068.26 603.072 2069.57 605.049 2069.91 607.025 2070.26 608.366 2069.23 609.07 2066.82L618.42 2020.62C620.053 2011.33 623.319 2003.65 628.217 1997.59 633.116 1991.53 640.575 1988.39 650.595 1988.17 661.172 1988.39 669.376 1991.53 675.208 1997.59 681.04 2003.65 683.744 2011.33 683.32 2020.62 682.626 2034.13 681.754 2046.35 680.703 2057.28 679.652 2068.21 678.189 2079.31 676.313 2090.57 674.437 2101.84 671.915 2114.73 668.745 2129.25 666.694 2139.03 662.89 2146.89 657.333 2152.83 651.776 2158.76 644.396 2161.81 635.195 2161.97 629.168 2161.92 624.104 2160.78 620.002 2158.57 615.9 2156.35 612.623 2153.36 610.17 2149.6 604.183 2140.39 598.764 2130.2 593.911 2119.04 589.058 2107.87 584.395 2096.52 579.92 2084.97 579.176 2083.32 578.259 2082.5 577.17 2082.5 576.082 2082.5 575.165 2083.32 574.42 2084.97 570.066 2096.64 565.437 2108.03 560.533 2119.14 555.629 2130.25 550.175 2140.41 544.17 2149.6 541.615 2153.36 538.338 2156.35 534.339 2158.57 530.34 2160.78 525.276 2161.92 519.146 2161.97 509.841 2161.81 502.462 2158.76 497.008 2152.83 491.554 2146.89 487.75 2139.03 485.595 2129.25 482.491 2115.76 479.9 2103.32 477.824 2091.92 475.748 2080.52 474.115 2069.13 472.925 2057.77 471.735 2046.4 470.917 2034.02 470.47 2020.62 470.425 2011.33 473.679 2003.65 480.233 1997.59 486.787 1991.53 495.266 1988.39 505.67 1988.17Z" stroke="#000000" stroke-width="6" stroke-linejoin="round" stroke-miterlimit="10" fill="#5A3FFF" fill-rule="evenodd"/><text fill="#000000" fill-opacity="0" font-family="Arial,Arial_MSFontService,sans-serif" font-size="173.8" x="470.47" y="2140.25">w</text><path d="M732.856 1926.56C734.134 1926.52 735.452 1926.53 736.808 1926.57 747.367 1926.23 755.537 1928.36 761.317 1932.96 767.098 1937.57 770.662 1946.71 772.008 1960.4 772.432 1964.78 772.822 1970.52 773.177 1977.62 773.532 1984.72 773.784 1990.8 773.933 1995.87 768.782 1999.78 764.508 2003.99 761.111 2008.49 757.714 2012.98 754.746 2018.22 752.208 2024.2 751.096 2027.72 751.463 2030.02 753.308 2031.11 755.153 2032.19 756.894 2031.54 758.533 2029.15 759.919 2026.26 761.478 2023.43 763.208 2020.66 764.938 2017.88 766.772 2015.12 768.708 2012.37 774.683 2004.26 781.57 1998.2 789.367 1994.19 797.165 1990.17 805.495 1988.17 814.358 1988.17 826.18 1988.32 836.025 1991.35 843.895 1997.28 851.765 2003.2 857.679 2011.12 861.638 2021.05 865.596 2030.97 867.62 2042.01 867.708 2054.17 867.828 2066.6 867.519 2078.39 866.78 2089.54 866.041 2100.7 864.975 2112.56 863.583 2125.12 862.655 2135.68 859.217 2144.4 853.27 2151.28 847.324 2158.16 838.661 2161.72 827.283 2161.97 815.67 2161.72 806.927 2158.16 801.055 2151.28 795.182 2144.4 791.734 2135.68 790.708 2125.12 789.894 2117.98 789.253 2110.88 788.783 2103.81 788.313 2096.74 787.947 2089.63 787.683 2082.5 787.362 2080.86 786.698 2079.67 785.689 2078.92 784.681 2078.18 783.604 2077.81 782.458 2077.82 781.329 2077.83 780.287 2078.16 779.33 2078.82 778.373 2079.48 777.674 2080.43 777.233 2081.67 776.832 2088.96 776.397 2096.24 775.927 2103.5 775.457 2110.76 774.884 2117.97 774.208 2125.12 773.16 2135.68 769.688 2144.4 763.792 2151.28 757.897 2158.16 749.269 2161.72 737.908 2161.97 726.295 2161.72 717.552 2158.16 711.68 2151.28 705.807 2144.4 702.359 2135.68 701.333 2125.12 700.388 2116.06 699.666 2107.03 699.167 2098.03 698.669 2089.04 698.291 2080.01 698.033 2070.95L698.033 2061.32C697.941 2045.24 698.262 2028.18 698.995 2010.14 699.729 1992.1 700.6 1975.52 701.608 1960.4 702.559 1946.71 705.951 1937.57 711.783 1932.96 716.886 1928.93 723.911 1926.8 732.856 1926.56Z" stroke="#000000" stroke-width="6" stroke-linejoin="round" stroke-miterlimit="10" fill="#5A3FFF" fill-rule="evenodd"/><text fill="#000000" fill-opacity="0" font-family="Arial,Arial_MSFontService,sans-serif" font-size="235.436" x="698.018" y="2132.54">h</text><path d="M1175.3 1926.85C1186.07 1926.96 1194.91 1930.03 1201.8 1936.06 1208.69 1942.09 1212.51 1950.38 1213.25 1960.95 1213.93 1974.66 1214.42 1988.82 1214.72 2003.43 1215.03 2018.04 1215.18 2032.48 1215.17 2046.75 1214.93 2055.05 1216.03 2061.89 1218.47 2067.27 1220.91 2072.65 1226.14 2075.43 1234.15 2075.62 1242.15 2075.43 1247.38 2072.65 1249.82 2067.27 1252.26 2061.89 1253.36 2055.05 1253.12 2046.75 1253.11 2032.48 1253.26 2018.04 1253.57 2003.43 1253.87 1988.82 1254.36 1974.66 1255.05 1960.95 1255.67 1950.38 1259.44 1942.09 1266.35 1936.06 1273.27 1930.03 1282.06 1926.96 1292.72 1926.85 1303.53 1926.96 1312.44 1930.03 1319.46 1936.06 1326.49 1942.09 1330.32 1950.38 1330.95 1960.95 1331.63 1974.66 1332.12 1988.82 1332.42 2003.43 1332.73 2018.04 1332.88 2032.48 1332.87 2046.75 1333.09 2068.89 1330.33 2088.77 1324.57 2106.4 1318.81 2124.03 1308.73 2138.01 1294.33 2148.33 1279.93 2158.66 1259.86 2163.94 1234.15 2164.17 1208.43 2163.94 1188.39 2158.66 1174.03 2148.33 1159.67 2138.01 1149.64 2124.03 1143.93 2106.4 1138.21 2088.77 1135.47 2068.89 1135.7 2046.75 1135.7 2032.48 1135.83 2018.04 1136.11 2003.43 1136.38 1988.82 1136.8 1974.66 1137.35 1960.95 1138.2 1950.38 1142.05 1942.09 1148.9 1936.06 1155.74 1930.03 1164.54 1926.96 1175.3 1926.85Z" stroke="#000000" stroke-width="6" stroke-linejoin="round" stroke-miterlimit="10" fill="#5A3FFF" fill-rule="evenodd"/><text fill="#000000" fill-opacity="0" font-family="Arial,Arial_MSFontService,sans-serif" font-size="237.325" x="1135.68" y="2134.51">U</text><path d="M1073.54 2087.72C1091.82 2058.77 1103 2027.13 1103 1996.87 1103 1976.88 1086.12 1960 1066.13 1960 1037.15 1960 1005.71 1970.18 975.194 1989.44 975.189 1989.45 975.189 1989.45 975.183 1989.45 933.237 1993.81 899.809 2027.24 895.454 2069.19 895.451 2069.19 895.446 2069.19 895.443 2069.2 876.18 2099.71 866 2131.16 866 2160.13 866 2180.12 882.882 2197 902.866 2197 933.131 2197 964.768 2185.82 993.719 2167.55 1035.91 2163.23 1069.23 2129.92 1073.54 2087.72ZM1004.41 2160.39C1028.13 2143.59 1049.59 2122.13 1066.39 2098.41 1059.01 2129.03 1035.03 2153.01 1004.41 2160.39ZM984.5 1994.23C1014.67 1994.23 1042.53 2010.43 1057.56 2036.55 1041.65 2076.22 996.35 2123.82 955.375 2145.58L960.028 2140.93C961.058 2139.9 961.058 2138.23 960.028 2137.2 958.999 2136.18 957.335 2136.18 956.305 2137.2L943.138 2150.37C942.806 2150.7 942.622 2151.11 942.503 2151.53 940.634 2150.45 938.825 2149.3 937.058 2148.1L952.131 2133.03C953.161 2132 953.161 2130.33 952.131 2129.3 951.101 2128.27 949.437 2128.27 948.408 2129.3L932.752 2144.96C931.17 2143.72 929.642 2142.44 928.162 2141.1 928.249 2141.04 928.352 2141 928.434 2140.93L944.234 2125.13C945.263 2124.1 945.263 2122.43 944.234 2121.4 943.204 2120.37 941.54 2120.37 940.51 2121.4L924.71 2137.2C924.602 2137.31 924.549 2137.45 924.465 2137.57 923.054 2136.13 921.7 2134.65 920.397 2133.12 920.442 2133.08 920.491 2133.07 920.533 2133.03L938.967 2114.59C939.997 2113.57 939.997 2111.9 938.967 2110.87 937.937 2109.84 936.273 2109.84 935.243 2110.87L917.108 2129.01C915.91 2127.4 914.769 2125.76 913.687 2124.08L933.7 2104.06C934.73 2103.03 934.73 2101.37 933.7 2100.34 932.671 2099.31 931.007 2099.31 929.977 2100.34L910.898 2119.42C909.892 2117.6 908.957 2115.76 908.086 2113.88L928.436 2093.53C929.466 2092.5 929.466 2090.83 928.436 2089.8 927.407 2088.77 925.742 2088.77 924.713 2089.8L905.874 2108.64C905.044 2106.48 904.289 2104.28 903.635 2102.05 904.036 2101.93 904.42 2101.74 904.736 2101.43L925.803 2080.36C926.832 2079.33 926.832 2077.67 925.803 2076.64 924.773 2075.61 923.109 2075.61 922.079 2076.64L902.219 2096.5C901.671 2093.99 901.231 2091.46 900.913 2088.9 901.347 2088.78 901.763 2088.6 902.103 2088.26L923.17 2067.19C924.199 2066.16 924.199 2064.5 923.17 2063.47 922.14 2062.44 920.476 2062.44 919.446 2063.47L900.378 2082.54C900.304 2081.19 900.233 2079.85 900.233 2078.5 900.233 2077.06 900.27 2075.64 900.341 2074.22L920.528 2054.03C921.558 2053 921.558 2051.33 920.528 2050.3 919.499 2049.28 917.834 2049.28 916.805 2050.3L901.173 2065.94C901.753 2062.08 902.608 2058.31 903.693 2054.64 904.07 2054.52 904.428 2054.33 904.728 2054.03L925.795 2032.96C926.824 2031.93 926.824 2030.27 925.795 2029.24 924.766 2028.21 923.101 2028.21 922.071 2029.24L907.93 2043.38C921.273 2014.4 950.567 1994.23 984.5 1994.23ZM1059.87 2030.18C1052.81 2019.17 1043.51 2010.04 1032.78 2003.17 1040.1 2000.78 1046.89 1999.5 1052.96 1999.5 1052.96 1999.5 1052.97 1999.5 1052.97 1999.5 1056.13 1999.5 1058.79 2000.48 1060.65 2002.35 1062.52 2004.21 1063.5 2006.87 1063.5 2010.03 1063.5 2016.27 1062.19 2023.07 1059.87 2030.18ZM936.175 2153.87C929.068 2156.19 922.274 2157.5 916.033 2157.5 909.634 2157.5 905.5 2153.37 905.5 2146.97 905.5 2140.9 906.777 2134.1 909.168 2126.78 916.038 2137.5 925.174 2146.81 936.175 2153.87ZM871.266 2160.13C871.266 2134.7 879.469 2107.21 895.022 2080.14 895.29 2094.75 899.127 2108.81 905.9 2121.25 905.534 2121.55 905.218 2121.9 905.05 2122.38 901.853 2131.29 900.233 2139.56 900.233 2146.97 900.233 2156.27 906.732 2162.77 916.033 2162.77 924.323 2162.77 933.442 2160.7 942.949 2157.08 943.18 2157.02 943.404 2156.94 943.615 2156.83 989.83 2138.89 1045.22 2083.42 1062.96 2037.25 1063 2037.16 1063.03 2037.09 1063.06 2037 1066.69 2027.48 1068.77 2018.34 1068.77 2010.03 1068.77 2005.44 1067.25 2001.5 1064.37 1998.63 1061.5 1995.75 1057.56 1994.23 1052.97 1994.23 1052.97 1994.23 1052.96 1994.23 1052.96 1994.23 1045.56 1994.23 1037.29 1995.85 1028.38 1999.05 1027.9 1999.22 1027.55 1999.54 1027.26 1999.9 1014.8 1993.13 1000.76 1989.29 986.138 1989.02 1013.21 1973.47 1040.7 1965.27 1066.13 1965.27 1082.97 1965.27 1097.73 1980.03 1097.73 1996.87 1097.73 2025.93 1087.15 2056.28 1069.79 2084.15 1069.06 2084.56 1068.51 2085.27 1068.42 2086.16 1068.41 2086.23 1068.4 2086.31 1068.4 2086.38 1049.26 2116.33 1022.33 2143.26 992.379 2162.4 992.308 2162.41 992.234 2162.42 992.163 2162.42 991.257 2162.5 990.543 2163.06 990.133 2163.8 962.272 2181.15 931.92 2191.73 902.866 2191.73 886.032 2191.73 871.266 2176.97 871.266 2160.13Z" fill-rule="evenodd"/><path d="M887 2002C898.579 2002 908 1992.58 908 1981 908 1969.42 898.579 1960 887 1960 875.421 1960 866 1969.42 866 1981 866 1992.58 875.421 2002 887 2002ZM887 1965.25C895.686 1965.25 902.75 1972.31 902.75 1981 902.75 1988.18 897.915 1994.24 891.331 1996.13L894.106 1993.36C895.132 1992.33 895.132 1990.67 894.106 1989.64 893.08 1988.62 891.42 1988.62 890.394 1989.64L885.144 1994.89C884.69 1995.35 884.472 1995.93 884.422 1996.52 881.968 1996.11 879.71 1995.14 877.778 1993.74 877.978 1993.63 878.185 1993.52 878.359 1993.36L883.609 1988.11C884.635 1987.08 884.635 1985.42 883.609 1984.39 882.582 1983.37 880.923 1983.37 879.897 1984.39L874.647 1989.64C874.476 1989.81 874.374 1990.02 874.263 1990.22 872.862 1988.29 871.89 1986.03 871.484 1983.58 872.074 1983.53 872.654 1983.31 873.108 1982.86L878.359 1977.61C879.385 1976.58 879.385 1974.92 878.359 1973.89 877.332 1972.87 875.673 1972.87 874.647 1973.89L871.87 1976.67C873.757 1970.09 879.821 1965.25 887 1965.25Z" fill-rule="evenodd"/><path d="M1058 2161C1051.38 2161 1046 2166.38 1046 2173 1046 2179.62 1051.38 2185 1058 2185 1064.62 2185 1070 2179.62 1070 2173 1070 2166.38 1064.62 2161 1058 2161ZM1058 2179.67C1054.32 2179.67 1051.33 2176.68 1051.33 2173 1051.33 2169.32 1054.32 2166.33 1058 2166.33 1061.68 2166.33 1064.67 2169.32 1064.67 2173 1064.67 2176.68 1061.68 2179.67 1058 2179.67Z" fill-rule="evenodd"/><path d="M1071.57 2053.82C1071.88 2053.94 1072.2 2054 1072.51 2054 1073.2 2054 1073.87 2053.73 1074.37 2053.23L1086.23 2041.37C1086.97 2040.63 1087.2 2039.54 1086.82 2038.57 1085.05 2033.97 1080.73 2031 1075.82 2031 1069.3 2031 1064 2036.3 1064 2042.82 1064 2047.73 1066.97 2052.05 1071.57 2053.82ZM1075.82 2036.25C1077.98 2036.25 1079.95 2037.3 1081.15 2039.02L1072.02 2048.16C1070.3 2046.95 1069.25 2044.99 1069.25 2042.82 1069.25 2039.2 1072.2 2036.25 1075.82 2036.25Z" fill-rule="evenodd"/></g></svg>