{
  "accessors": [
    {
      "bufferView": 2,
      "componentType": 5126,
      "count": 7899,
      "max": [
        0.27549999952316284,
        0.1145000159740448,
        0.17400000989437103
      ],
      "min": [
        -0.27549999952316284,
        -0.1145000085234642,
        -0.17400000989437103
      ],
      "type": "VEC3"
    },
    {
      "bufferView": 2,
      "byteOffset": 94788,
      "componentType": 5126,
      "count": 7899,
      "max": [
        1.0,
        1.0,
        1.0
      ],
      "min": [
        -1.0,
        -1.0,
        -1.0
      ],
      "type": "VEC3"
    },
    {
      "bufferView": 1,
      "componentType": 5126,
      "count": 7899,
      "max": [
        0.875,
        1.0
      ],
      "min": [
        0.125,
        0.0
      ],
      "type": "VEC2"
    },
    {
      "bufferView": 0,
      "componentType": 5125,
      "count": 33006,
      "type": "SCALAR"
    },
    {
      "bufferView": 2,
      "byteOffset": 189576,
      "componentType": 5126,
      "count": 6262,
      "max": [
        0.27549999952316284,
        0.010236261412501335,
        0.17400002479553223
      ],
      "min": [
        -0.27549999952316284,
        -0.010236261412501335,
        -0.17400002479553223
      ],
      "type": "VEC3"
    },
    {
      "bufferView": 2,
      "byteOffset": 264720,
      "componentType": 5126,
      "count": 6262,
      "max": [
        0.9988226294517517,
        0.873335599899292,
        1.0
      ],
      "min": [
        -0.9988227486610413,
        -0.873335599899292,
        -1.0
      ],
      "type": "VEC3"
    },
    {
      "bufferView": 1,
      "byteOffset": 63192,
      "componentType": 5126,
      "count": 6262,
      "max": [
        18.311683654785156,
        0.435181200504303
      ],
      "min": [
        -17.311683654785156,
        0.29711416363716125
      ],
      "type": "VEC2"
    },
    {
      "bufferView": 0,
      "byteOffset": 132024,
      "componentType": 5125,
      "count": 12264,
      "type": "SCALAR"
    },
    {
      "bufferView": 2,
      "byteOffset": 339864,
      "componentType": 5126,
      "count": 615,
      "max": [
        -0.2197728157043457,
        0.1145000085234642,
        0.17400000989437103
      ],
      "min": [
        -0.244839608669281,
        -0.1145000085234642,
        -0.17400000989437103
      ],
      "type": "VEC3"
    },
    {
      "bufferView": 2,
      "byteOffset": 347244,
      "componentType": 5126,
      "count": 615,
      "max": [
        1.0,
        1.0,
        1.0
      ],
      "min": [
        -1.0,
        -1.0,
        -1.0
      ],
      "type": "VEC3"
    },
    {
      "bufferView": 1,
      "byteOffset": 113288,
      "componentType": 5126,
      "count": 615,
      "max": [
        0.8610936403274536,
        0.9860931634902954
      ],
      "min": [
        0.30599308013916016,
        0.26390644907951355
      ],
      "type": "VEC2"
    },
    {
      "bufferView": 0,
      "byteOffset": 181080,
      "componentType": 5125,
      "count": 1824,
      "type": "SCALAR"
    },
    {
      "bufferView": 2,
      "byteOffset": 354624,
      "componentType": 5126,
      "count": 378,
      "max": [
        0.27549999952316284,
        0.1145000159740448,
        0.09539753198623657
      ],
      "min": [
        0.2025047242641449,
        0.058667317032814026,
        -0.09539753198623657
      ],
      "type": "VEC3"
    },
    {
      "bufferView": 2,
      "byteOffset": 359160,
      "componentType": 5126,
      "count": 378,
      "max": [
        1.0,
        1.0,
        1.0
      ],
      "min": [
        -0.9999933838844299,
        -0.9999933838844299,
        -1.0
      ],
      "type": "VEC3"
    },
    {
      "bufferView": 1,
      "byteOffset": 118208,
      "componentType": 5126,
      "count": 378,
      "max": [
        0.6581195592880249,
        1.0
      ],
      "min": [
        0.125,
        0.0
      ],
      "type": "VEC2"
    },
    {
      "bufferView": 0,
      "byteOffset": 188376,
      "componentType": 5125,
      "count": 1428,
      "type": "SCALAR"
    },
    {
      "bufferView": 2,
      "byteOffset": 363696,
      "componentType": 5126,
      "count": 184,
      "max": [
        0.004174077417701483,
        0.003994464874267578,
        0.24079738557338715
      ],
      "min": [
        -0.04580392688512802,
        -0.17929591238498688,
        -0.03928694128990173
      ],
      "type": "VEC3"
    },
    {
      "bufferView": 2,
      "byteOffset": 365904,
      "componentType": 5126,
      "count": 184,
      "max": [
        0.9887173175811768,
        1.0,
        0.9526509046554565
      ],
      "min": [
        -0.999950110912323,
        -1.0,
        -0.9526509642601013
      ],
      "type": "VEC3"
    },
    {
      "bufferView": 1,
      "byteOffset": 121232,
      "componentType": 5126,
      "count": 184,
      "max": [
        1.0,
        1.0
      ],
      "min": [
        0.0,
        0.0
      ],
      "type": "VEC2"
    },
    {
      "bufferView": 0,
      "byteOffset": 194088,
      "componentType": 5125,
      "count": 288,
      "type": "SCALAR"
    },
    {
      "bufferView": 2,
      "byteOffset": 368112,
      "componentType": 5126,
      "count": 8501,
      "max": [
        0.03203755244612694,
        0.02079891599714756,
        0.28794851899147034
      ],
      "min": [
        -0.03203755244612694,
        -0.1961003690958023,
        -0.032037537544965744
      ],
      "type": "VEC3"
    },
    {
      "bufferView": 2,
      "byteOffset": 470124,
      "componentType": 5126,
      "count": 8501,
      "max": [
        0.9915044903755188,
        1.0,
        0.9868112206459045
      ],
      "min": [
        -0.9915044903755188,
        -1.0,
        -0.9868109226226807
      ],
      "type": "VEC3"
    },
    {
      "bufferView": 1,
      "byteOffset": 122704,
      "componentType": 5126,
      "count": 8501,
      "max": [
        0.0,
        0.0
      ],
      "min": [
        0.0,
        0.0
      ],
      "type": "VEC2"
    },
    {
      "bufferView": 0,
      "byteOffset": 195240,
      "componentType": 5125,
      "count": 38304,
      "type": "SCALAR"
    },
    {
      "bufferView": 2,
      "byteOffset": 572136,
      "componentType": 5126,
      "count": 228,
      "max": [
        0.009761177934706211,
        0.031985681504011154,
        0.07143935561180115
      ],
      "min": [
        -0.017667140811681747,
        -4.431738087617987e-09,
        -0.07143935561180115
      ],
      "type": "VEC3"
    },
    {
      "bufferView": 2,
      "byteOffset": 574872,
      "componentType": 5126,
      "count": 228,
      "max": [
        0.9996910691261292,
        0.9832661151885986,
        0.998991847038269
      ],
      "min": [
        -0.989050030708313,
        -0.9997374415397644,
        -0.9991106986999512
      ],
      "type": "VEC3"
    },
    {
      "bufferView": 1,
      "byteOffset": 190712,
      "componentType": 5126,
      "count": 228,
      "max": [
        1.0000001192092896,
        1.0000001192092896
      ],
      "min": [
        0.0,
        0.0
      ],
      "type": "VEC2"
    },
    {
      "bufferView": 0,
      "byteOffset": 348456,
      "componentType": 5125,
      "count": 756,
      "type": "SCALAR"
    },
    {
      "bufferView": 2,
      "byteOffset": 577608,
      "componentType": 5126,
      "count": 112,
      "max": [
        0.006363942287862301,
        0.0,
        0.12313993275165558
      ],
      "min": [
        -0.006363952532410622,
        -0.3443748354911804,
        -0.008749274536967278
      ],
      "type": "VEC3"
    },
    {
      "bufferView": 2,
      "byteOffset": 578952,
      "componentType": 5126,
      "count": 112,
      "max": [
        1.0,
        1.0,
        1.0
      ],
      "min": [
        -1.0,
        -1.0,
        -1.0
      ],
      "type": "VEC3"
    },
    {
      "bufferView": 1,
      "byteOffset": 192536,
      "componentType": 5126,
      "count": 112,
      "max": [
        1.0,
        1.0
      ],
      "min": [
        0.0,
        0.0
      ],
      "type": "VEC2"
    },
    {
      "bufferView": 0,
      "byteOffset": 351480,
      "componentType": 5125,
      "count": 168,
      "type": "SCALAR"
    },
    {
      "bufferView": 2,
      "byteOffset": 580296,
      "componentType": 5126,
      "count": 1380,
      "max": [
        0.012674691155552864,
        0.003856525057926774,
        0.08740060031414032
      ],
      "min": [
        -0.01260922197252512,
        -0.004000005312263966,
        -0.08740059286355972
      ],
      "type": "VEC3"
    },
    {
      "bufferView": 2,
      "byteOffset": 596856,
      "componentType": 5126,
      "count": 1380,
      "max": [
        0.7173573970794678,
        1.0,
        0.7153102159500122
      ],
      "min": [
        -0.7173556089401245,
        -1.0,
        -0.715280294418335
      ],
      "type": "VEC3"
    },
    {
      "bufferView": 1,
      "byteOffset": 193432,
      "componentType": 5126,
      "count": 1380,
      "max": [
        1.0000001192092896,
        0.5000000596046448
      ],
      "min": [
        0.0,
        0.0
      ],
      "type": "VEC2"
    },
    {
      "bufferView": 0,
      "byteOffset": 352152,
      "componentType": 5125,
      "count": 6720,
      "type": "SCALAR"
    },
    {
      "bufferView": 2,
      "byteOffset": 613416,
      "componentType": 5126,
      "count": 1380,
      "max": [
        0.01456659659743309,
        0.004432173911482096,
        0.10044656693935394
      ],
      "min": [
        -0.014491355046629906,
        -0.00400000624358654,
        -0.10044656693935394
      ],
      "type": "VEC3"
    },
    {
      "bufferView": 2,
      "byteOffset": 629976,
      "componentType": 5126,
      "count": 1380,
      "max": [
        0.7173556089401245,
        1.0,
        0.7153102159500122
      ],
      "min": [
        -0.7173573970794678,
        -1.0,
        -0.7153102159500122
      ],
      "type": "VEC3"
    },
    {
      "bufferView": 1,
      "byteOffset": 204472,
      "componentType": 5126,
      "count": 1380,
      "max": [
        1.0000001192092896,
        0.5000000596046448
      ],
      "min": [
        0.0,
        0.0
      ],
      "type": "VEC2"
    },
    {
      "bufferView": 0,
      "byteOffset": 379032,
      "componentType": 5125,
      "count": 6720,
      "type": "SCALAR"
    },
    {
      "bufferView": 2,
      "byteOffset": 646536,
      "componentType": 5126,
      "count": 146,
      "max": [
        0.011222893372178078,
        0.005664142780005932,
        0.03424254059791565
      ],
      "min": [
        -0.011222893372178078,
        -1.4994295804982016e-09,
        -0.03424254059791565
      ],
      "type": "VEC3"
    },
    {
      "bufferView": 2,
      "byteOffset": 648288,
      "componentType": 5126,
      "count": 146,
      "max": [
        1.0,
        1.0,
        1.0
      ],
      "min": [
        -1.0,
        -1.0,
        -1.0
      ],
      "type": "VEC3"
    },
    {
      "bufferView": 1,
      "byteOffset": 215512,
      "componentType": 5126,
      "count": 146,
      "max": [
        1.0,
        1.0
      ],
      "min": [
        0.0,
        0.0
      ],
      "type": "VEC2"
    },
    {
      "bufferView": 0,
      "byteOffset": 405912,
      "componentType": 5125,
      "count": 408,
      "type": "SCALAR"
    },
    {
      "bufferView": 2,
      "byteOffset": 650040,
      "componentType": 5126,
      "count": 8,
      "max": [
        0.00478806858882308,
        0.0019181744428351521,
        0.010561021976172924
      ],
      "min": [
        -0.03224533051252365,
        0.0019181733950972557,
        -0.010561021976172924
      ],
      "type": "VEC3"
    },
    {
      "bufferView": 2,
      "byteOffset": 650136,
      "componentType": 5126,
      "count": 8,
      "max": [
        2.829170497875566e-08,
        1.0,
        -0.0
      ],
      "min": [
        2.829170497875566e-08,
        1.0,
        -0.0
      ],
      "type": "VEC3"
    },
    {
      "bufferView": 1,
      "byteOffset": 216680,
      "componentType": 5126,
      "count": 8,
      "max": [
        1.0,
        1.0
      ],
      "min": [
        0.0,
        0.0
      ],
      "type": "VEC2"
    },
    {
      "bufferView": 0,
      "byteOffset": 407544,
      "componentType": 5125,
      "count": 12,
      "type": "SCALAR"
    },
    {
      "bufferView": 2,
      "byteOffset": 650232,
      "componentType": 5126,
      "count": 24,
      "max": [
        0.0077612861059606075,
        0.0,
        0.01661127619445324
      ],
      "min": [
        -0.007761270273476839,
        -0.0025997047778218985,
        -0.01661127619445324
      ],
      "type": "VEC3"
    },
    {
      "bufferView": 2,
      "byteOffset": 650520,
      "componentType": 5126,
      "count": 24,
      "max": [
        0.8297199606895447,
        1.0,
        0.8297199606895447
      ],
      "min": [
        -0.8297199606895447,
        -1.0,
        -0.8297199606895447
      ],
      "type": "VEC3"
    },
    {
      "bufferView": 1,
      "byteOffset": 216744,
      "componentType": 5126,
      "count": 24,
      "max": [
        1.0,
        1.0
      ],
      "min": [
        0.0,
        0.0
      ],
      "type": "VEC2"
    },
    {
      "bufferView": 0,
      "byteOffset": 407592,
      "componentType": 5125,
      "count": 36,
      "type": "SCALAR"
    }
  ],
  "asset": {
    "extras": {
      "author": "F3NCR (https://sketchfab.com/F3NCR)",
      "license": "CC-BY-4.0 (http://creativecommons.org/licenses/by/4.0/)",
      "source": "https://sketchfab.com/3d-models/hand-luggage-c976c7342d0849d2bb66a66ed07192c5",
      "title": "Hand Luggage"
    },
    "generator": "Sketchfab-13.31.0",
    "version": "2.0"
  },
  "bufferViews": [
    {
      "buffer": 0,
      "byteLength": 407736,
      "name": "floatBufferViews",
      "target": 34963
    },
    {
      "buffer": 0,
      "byteLength": 216936,
      "byteOffset": 407736,
      "byteStride": 8,
      "name": "floatBufferViews",
      "target": 34962
    },
    {
      "buffer": 0,
      "byteLength": 650808,
      "byteOffset": 624672,
      "byteStride": 12,
      "name": "floatBufferViews",
      "target": 34962
    }
  ],
  "buffers": [
    {
      "byteLength": 1275480,
      "uri": "scene.bin"
    }
  ],
  "materials": [
    {
      "doubleSided": true,
      "name": "Material.001",
      "pbrMetallicRoughness": {
        "baseColorFactor": [
          0.8,
          0.8,
          0.8,
          1.0
        ],
        "metallicFactor": 0.0,
        "roughnessFactor": 0.5
      }
    },
    {
      "doubleSided": true,
      "name": "Material.Example_Sheet"
    },
    {
      "doubleSided": true,
      "name": "Material",
      "pbrMetallicRoughness": {
        "baseColorFactor": [
          0.0,
          0.0,
          0.0,
          1.0
        ],
        "metallicFactor": 0.0,
        "roughnessFactor": 0.5
      }
    }
  ],
  "meshes": [
    {
      "name": "Object_0",
      "primitives": [
        {
          "attributes": {
            "NORMAL": 1,
            "POSITION": 0,
            "TEXCOORD_0": 2
          },
          "indices": 3,
          "material": 0,
          "mode": 4
        }
      ]
    },
    {
      "name": "Object_1",
      "primitives": [
        {
          "attributes": {
            "NORMAL": 5,
            "POSITION": 4,
            "TEXCOORD_0": 6
          },
          "indices": 7,
          "material": 1,
          "mode": 4
        }
      ]
    },
    {
      "name": "Object_2",
      "primitives": [
        {
          "attributes": {
            "NORMAL": 9,
            "POSITION": 8,
            "TEXCOORD_0": 10
          },
          "indices": 11,
          "material": 2,
          "mode": 4
        }
      ]
    },
    {
      "name": "Object_3",
      "primitives": [
        {
          "attributes": {
            "NORMAL": 13,
            "POSITION": 12,
            "TEXCOORD_0": 14
          },
          "indices": 15,
          "material": 2,
          "mode": 4
        }
      ]
    },
    {
      "name": "Object_4",
      "primitives": [
        {
          "attributes": {
            "NORMAL": 17,
            "POSITION": 16,
            "TEXCOORD_0": 18
          },
          "indices": 19,
          "material": 2,
          "mode": 4
        }
      ]
    },
    {
      "name": "Object_5",
      "primitives": [
        {
          "attributes": {
            "NORMAL": 21,
            "POSITION": 20,
            "TEXCOORD_0": 22
          },
          "indices": 23,
          "material": 2,
          "mode": 4
        }
      ]
    },
    {
      "name": "Object_6",
      "primitives": [
        {
          "attributes": {
            "NORMAL": 25,
            "POSITION": 24,
            "TEXCOORD_0": 26
          },
          "indices": 27,
          "material": 2,
          "mode": 4
        }
      ]
    },
    {
      "name": "Object_7",
      "primitives": [
        {
          "attributes": {
            "NORMAL": 29,
            "POSITION": 28,
            "TEXCOORD_0": 30
          },
          "indices": 31,
          "material": 2,
          "mode": 4
        }
      ]
    },
    {
      "name": "Object_8",
      "primitives": [
        {
          "attributes": {
            "NORMAL": 33,
            "POSITION": 32,
            "TEXCOORD_0": 34
          },
          "indices": 35,
          "material": 2,
          "mode": 4
        }
      ]
    },
    {
      "name": "Object_9",
      "primitives": [
        {
          "attributes": {
            "NORMAL": 37,
            "POSITION": 36,
            "TEXCOORD_0": 38
          },
          "indices": 39,
          "material": 2,
          "mode": 4
        }
      ]
    },
    {
      "name": "Object_10",
      "primitives": [
        {
          "attributes": {
            "NORMAL": 41,
            "POSITION": 40,
            "TEXCOORD_0": 42
          },
          "indices": 43,
          "material": 2,
          "mode": 4
        }
      ]
    },
    {
      "name": "Object_11",
      "primitives": [
        {
          "attributes": {
            "NORMAL": 45,
            "POSITION": 44,
            "TEXCOORD_0": 46
          },
          "indices": 47,
          "material": 2,
          "mode": 4
        }
      ]
    },
    {
      "name": "Object_12",
      "primitives": [
        {
          "attributes": {
            "NORMAL": 49,
            "POSITION": 48,
            "TEXCOORD_0": 50
          },
          "indices": 51,
          "material": 2,
          "mode": 4
        }
      ]
    }
  ],
  "nodes": [
    {
      "children": [
        1
      ],
      "matrix": [
        1.0,
        0.0,
        0.0,
        0.0,
        0.0,
        2.220446049250313e-16,
        -1.0,
        0.0,
        0.0,
        1.0,
        2.220446049250313e-16,
        0.0,
        0.0,
        0.0,
        0.0,
        1.0
      ],
      "name": "Sketchfab_model"
    },
    {
      "children": [
        2
      ],
      "name": "root"
    },
    {
      "children": [
        3
      ],
      "matrix": [
        1.0,
        0.0,
        0.0,
        0.0,
        0.0,
        2.220446049250313e-16,
        1.0,
        0.0,
        0.0,
        -1.0,
        2.220446049250313e-16,
        0.0,
        0.0,
        0.0,
        0.0,
        1.0
      ],
      "name": "GLTF_SceneRootNode"
    },
    {
      "children": [
        4,
        5,
        6,
        8,
        10,
        14,
        18,
        20,
        22,
        24,
        26
      ],
      "name": "Cube_11"
    },
    {
      "mesh": 0,
      "name": "Object_4"
    },
    {
      "mesh": 1,
      "name": "Object_5"
    },
    {
      "children": [
        7
      ],
      "name": "Cube.002_0"
    },
    {
      "mesh": 2,
      "name": "Object_7"
    },
    {
      "children": [
        9
      ],
      "name": "Cube.003_1"
    },
    {
      "mesh": 3,
      "name": "Object_9"
    },
    {
      "children": [
        11,
        12
      ],
      "matrix": [
        1.0,
        0.0,
        0.0,
        0.0,
        0.0,
        1.0,
        0.0,
        0.0,
        0.0,
        0.0,
        1.0,
        0.0,
        -0.24435751140117645,
        0.08765072375535965,
        -0.1007552221417427,
        1.0
      ],
      "name": "Plane_3"
    },
    {
      "mesh": 4,
      "name": "Object_11"
    },
    {
      "children": [
        13
      ],
      "matrix": [
        1.0,
        0.0,
        0.0,
        0.0,
        0.0,
        1.0,
        0.0,
        0.0,
        0.0,
        0.0,
        1.0,
        0.0,
        -0.03724195063114166,
        0.0,
        -0.027200274169445038,
        1.0
      ],
      "name": "Circle_2"
    },
    {
      "mesh": 5,
      "name": "Object_13"
    },
    {
      "children": [
        15,
        16
      ],
      "matrix": [
        1.0,
        0.0,
        0.0,
        0.0,
        0.0,
        1.0,
        0.0,
        0.0,
        0.0,
        0.0,
        1.0,
        0.0,
        0.25916528701782227,
        0.08122985064983368,
        0.0,
        1.0
      ],
      "name": "Plane.001_5"
    },
    {
      "mesh": 6,
      "name": "Object_15"
    },
    {
      "children": [
        17
      ],
      "matrix": [
        3.37174793862971e-07,
        -0.9999999999999432,
        -0.0,
        0.0,
        0.9999999999999432,
        3.37174793862971e-07,
        0.0,
        0.0,
        0.0,
        0.0,
        1.0,
        0.0,
        -0.0023282766342163086,
        0.01576254516839981,
        -0.057195328176021576,
        1.0
      ],
      "name": "Plane.002_4"
    },
    {
      "mesh": 7,
      "name": "Object_17"
    },
    {
      "children": [
        19
      ],
      "matrix": [
        1.685873969314855e-07,
        -0.9999999999999857,
        -0.0,
        0.0,
        0.9999999999999857,
        1.685873969314855e-07,
        0.0,
        0.0,
        0.0,
        0.0,
        1.0,
        0.0,
        0.27895233035087585,
        0.032479703426361084,
        0.0,
        1.0
      ],
      "name": "Plane.003_6"
    },
    {
      "mesh": 8,
      "name": "Object_19"
    },
    {
      "children": [
        21
      ],
      "matrix": [
        5.960464477539063e-08,
        -0.9999999999999964,
        -5.960463411724959e-08,
        0.0,
        -1.7881391656260348e-07,
        -5.960464477539063e-08,
        0.9999999999999822,
        0.0,
        -0.9999999999999822,
        -5.960463411724959e-08,
        -1.7881392011531716e-07,
        0.0,
        0.00010162559919990599,
        0.040564198046922684,
        0.17863640189170837,
        1.0
      ],
      "name": "Plane.004_7"
    },
    {
      "mesh": 9,
      "name": "Object_21"
    },
    {
      "children": [
        23
      ],
      "matrix": [
        8.429369480200677e-08,
        -0.9999999999999966,
        -0.0,
        0.0,
        0.9999999999999966,
        8.429369480200677e-08,
        0.0,
        0.0,
        0.0,
        -0.0,
        1.0,
        0.0,
        0.27550017833709717,
        -0.029247626662254333,
        0.0,
        1.0
      ],
      "name": "Plane.005_8"
    },
    {
      "mesh": 10,
      "name": "Object_23"
    },
    {
      "children": [
        25
      ],
      "matrix": [
        1.685873969314855e-07,
        -0.9999999999999857,
        -0.0,
        0.0,
        0.9999999999999857,
        1.685873969314855e-07,
        0.0,
        0.0,
        0.0,
        -0.0,
        1.0,
        0.0,
        0.2811136841773987,
        -0.028131097555160522,
        -0.021170441061258316,
        1.0
      ],
      "name": "Plane.006_9"
    },
    {
      "mesh": 11,
      "name": "Object_25"
    },
    {
      "children": [
        27
      ],
      "matrix": [
        1.0,
        0.0,
        0.0,
        0.0,
        0.0,
        1.0,
        0.0,
        0.0,
        0.0,
        0.0,
        1.0,
        0.0,
        0.20521590113639832,
        -0.11449992656707764,
        -0.11614154279232025,
        1.0
      ],
      "name": "Plane.007_10"
    },
    {
      "mesh": 12,
      "name": "Object_27"
    }
  ],
  "scene": 0,
  "scenes": [
    {
      "name": "Sketchfab_Scene",
      "nodes": [
        0
      ]
    }
  ]
}
