{
  "accessors": [
    {
      "bufferView": 2,
      "componentType": 5126,
      "count": 1171,
      "max": [
        8.802108764648438,
        0.2140820175409317,
        -1.7723935842514038
      ],
      "min": [
        8.287606239318848,
        -0.276733934879303,
        -2.7864339351654053
      ],
      "type": "VEC3"
    },
    {
      "bufferView": 2,
      "byteOffset": 14052,
      "componentType": 5126,
      "count": 1171,
      "max": [
        0.9978750944137573,
        1.0,
        0.9986450672149658
      ],
      "min": [
        -0.9992431998252869,
        -1.0,
        -0.9985486268997192
      ],
      "type": "VEC3"
    },
    {
      "bufferView": 1,
      "componentType": 5126,
      "count": 1171,
      "max": [
        1.0,
        1.0
      ],
      "min": [
        0.0,
        0.0
      ],
      "type": "VEC2"
    },
    {
      "bufferView": 0,
      "componentType": 5125,
      "count": 4740,
      "type": "SCALAR"
    },
    {
      "bufferView": 2,
      "byteOffset": 28104,
      "componentType": 5126,
      "count": 4788,
      "max": [
        8.032173156738281,
        1.0266180038452148,
        1.0274641513824463
      ],
      "min": [
        1.0261030197143555,
        -1.0277464389801025,
        -1.0274643898010254
      ],
      "type": "VEC3"
    },
    {
      "bufferView": 2,
      "byteOffset": 85560,
      "componentType": 5126,
      "count": 4788,
      "max": [
        0.9993804097175598,
        1.0,
        0.9997252821922302
      ],
      "min": [
        -0.9993804097175598,
        -0.9989010691642761,
        -0.9999828338623047
      ],
      "type": "VEC3"
    },
    {
      "bufferView": 1,
      "byteOffset": 9368,
      "componentType": 5126,
      "count": 4788,
      "max": [
        1.0,
        1.0
      ],
      "min": [
        0.0,
        0.0
      ],
      "type": "VEC2"
    },
    {
      "bufferView": 0,
      "byteOffset": 18960,
      "componentType": 5125,
      "count": 26130,
      "type": "SCALAR"
    },
    {
      "bufferView": 2,
      "byteOffset": 143016,
      "componentType": 5126,
      "count": 198,
      "max": [
        10.41534423828125,
        0.7155262231826782,
        -0.08453518152236938
      ],
      "min": [
        8.069459915161133,
        -0.7233567237854004,
        -2.0389013290405273
      ],
      "type": "VEC3"
    },
    {
      "bufferView": 2,
      "byteOffset": 145392,
      "componentType": 5126,
      "count": 198,
      "max": [
        0.9987151026725769,
        0.998237669467926,
        0.9987151622772217
      ],
      "min": [
        -0.9987151026725769,
        -0.9817243814468384,
        -0.9987152814865112
      ],
      "type": "VEC3"
    },
    {
      "bufferView": 1,
      "byteOffset": 47672,
      "componentType": 5126,
      "count": 198,
      "max": [
        1.0,
        1.0
      ],
      "min": [
        0.0,
        0.0
      ],
      "type": "VEC2"
    },
    {
      "bufferView": 0,
      "byteOffset": 123480,
      "componentType": 5125,
      "count": 612,
      "type": "SCALAR"
    },
    {
      "bufferView": 2,
      "byteOffset": 147768,
      "componentType": 5126,
      "count": 1174,
      "max": [
        9.799113273620605,
        0.32117077708244324,
        -1.423052430152893
      ],
      "min": [
        8.094196319580078,
        -0.3570772707462311,
        -4.783300876617432
      ],
      "type": "VEC3"
    },
    {
      "bufferView": 2,
      "byteOffset": 161856,
      "componentType": 5126,
      "count": 1174,
      "max": [
        0.9978750348091125,
        1.0,
        0.9986446499824524
      ],
      "min": [
        -0.9992430806159973,
        -1.0,
        -0.9985482692718506
      ],
      "type": "VEC3"
    },
    {
      "bufferView": 1,
      "byteOffset": 49256,
      "componentType": 5126,
      "count": 1174,
      "max": [
        1.0,
        1.0
      ],
      "min": [
        0.0,
        0.0
      ],
      "type": "VEC2"
    },
    {
      "bufferView": 0,
      "byteOffset": 125928,
      "componentType": 5125,
      "count": 4740,
      "type": "SCALAR"
    },
    {
      "bufferView": 2,
      "byteOffset": 175944,
      "componentType": 5126,
      "count": 2501,
      "max": [
        10.840185165405273,
        1.5232470035552979,
        1.462655782699585
      ],
      "min": [
        6.599141597747803,
        -1.477466106414795,
        -1.536228895187378
      ],
      "type": "VEC3"
    },
    {
      "bufferView": 2,
      "byteOffset": 205956,
      "componentType": 5126,
      "count": 2501,
      "max": [
        1.0,
        1.0,
        1.0
      ],
      "min": [
        -1.0,
        -0.9993909597396851,
        -1.0
      ],
      "type": "VEC3"
    },
    {
      "bufferView": 1,
      "byteOffset": 58648,
      "componentType": 5126,
      "count": 2501,
      "max": [
        1.0,
        1.0
      ],
      "min": [
        0.0,
        0.0
      ],
      "type": "VEC2"
    },
    {
      "bufferView": 0,
      "byteOffset": 144888,
      "componentType": 5125,
      "count": 11880,
      "type": "SCALAR"
    },
    {
      "bufferView": 2,
      "byteOffset": 235968,
      "componentType": 5126,
      "count": 2250,
      "max": [
        7.041422367095947,
        4.006903171539307,
        4.022909164428711
      ],
      "min": [
        0.05284905433654785,
        -4.006903171539307,
        -3.995781898498535
      ],
      "type": "VEC3"
    },
    {
      "bufferView": 2,
      "byteOffset": 262968,
      "componentType": 5126,
      "count": 2250,
      "max": [
        0.6107781529426575,
        0.9949688911437988,
        0.9951188564300537
      ],
      "min": [
        0.09866809099912643,
        -0.9949688911437988,
        -0.9951189160346985
      ],
      "type": "VEC3"
    },
    {
      "bufferView": 0,
      "byteOffset": 192408,
      "componentType": 5125,
      "count": 11340,
      "type": "SCALAR"
    },
    {
      "bufferView": 2,
      "byteOffset": 289968,
      "componentType": 5126,
      "count": 2314,
      "max": [
        0.19484739005565643,
        4.131340026855469,
        4.1338582038879395
      ],
      "min": [
        -0.1948474496603012,
        -4.131340026855469,
        -4.1338582038879395
      ],
      "type": "VEC3"
    },
    {
      "bufferView": 2,
      "byteOffset": 317736,
      "componentType": 5126,
      "count": 2314,
      "max": [
        1.0,
        0.9959861636161804,
        0.9956871271133423
      ],
      "min": [
        -1.0,
        -0.99598628282547,
        -0.9968477487564087
      ],
      "type": "VEC3"
    },
    {
      "bufferView": 1,
      "byteOffset": 78656,
      "componentType": 5126,
      "count": 2314,
      "max": [
        1.0,
        1.0
      ],
      "min": [
        0.0,
        0.0
      ],
      "type": "VEC2"
    },
    {
      "bufferView": 0,
      "byteOffset": 237768,
      "componentType": 5125,
      "count": 11880,
      "type": "SCALAR"
    }
  ],
  "asset": {
    "extras": {
      "author": "AlexLeChat (https://sketchfab.com/AlexLeChat)",
      "license": "CC-BY-4.0 (http://creativecommons.org/licenses/by/4.0/)",
      "source": "https://sketchfab.com/3d-models/megaphone-8b3dfcfb427844b49f8ff09fce24e9ea",
      "title": "Megaphone"
    },
    "generator": "Sketchfab-12.65.0",
    "version": "2.0"
  },
  "bufferViews": [
    {
      "buffer": 0,
      "byteLength": 285288,
      "name": "floatBufferViews",
      "target": 34963
    },
    {
      "buffer": 0,
      "byteLength": 97168,
      "byteOffset": 285288,
      "byteStride": 8,
      "name": "floatBufferViews",
      "target": 34962
    },
    {
      "buffer": 0,
      "byteLength": 345504,
      "byteOffset": 382456,
      "byteStride": 12,
      "name": "floatBufferViews",
      "target": 34962
    }
  ],
  "buffers": [
    {
      "byteLength": 727960,
      "uri": "scene.bin"
    }
  ],
  "materials": [
    {
      "doubleSided": true,
      "name": "Material_51",
      "pbrMetallicRoughness": {
        "baseColorFactor": [
          0.0,
          0.0,
          0.0,
          1.0
        ],
        "metallicFactor": 0.0,
        "roughnessFactor": 0.6
      }
    },
    {
      "doubleSided": true,
      "name": "Material_47",
      "pbrMetallicRoughness": {
        "baseColorFactor": [
          0.839216,
          0.839216,
          0.839216,
          1.0
        ],
        "metallicFactor": 0.0,
        "roughnessFactor": 0.6
      }
    },
    {
      "doubleSided": true,
      "name": "Material_49",
      "pbrMetallicRoughness": {
        "baseColorFactor": [
          0.72549,
          0.0,
          0.752941,
          1.0
        ],
        "metallicFactor": 0.0,
        "roughnessFactor": 0.6
      }
    }
  ],
  "meshes": [
    {
      "name": "Object_0",
      "primitives": [
        {
          "attributes": {
            "NORMAL": 1,
            "POSITION": 0,
            "TEXCOORD_0": 2
          },
          "indices": 3,
          "material": 2,
          "mode": 4
        }
      ]
    },
    {
      "name": "Object_1",
      "primitives": [
        {
          "attributes": {
            "NORMAL": 5,
            "POSITION": 4,
            "TEXCOORD_0": 6
          },
          "indices": 7,
          "material": 2,
          "mode": 4
        }
      ]
    },
    {
      "name": "Object_2",
      "primitives": [
        {
          "attributes": {
            "NORMAL": 9,
            "POSITION": 8,
            "TEXCOORD_0": 10
          },
          "indices": 11,
          "material": 1,
          "mode": 4
        }
      ]
    },
    {
      "name": "Object_3",
      "primitives": [
        {
          "attributes": {
            "NORMAL": 13,
            "POSITION": 12,
            "TEXCOORD_0": 14
          },
          "indices": 15,
          "material": 1,
          "mode": 4
        }
      ]
    },
    {
      "name": "Object_4",
      "primitives": [
        {
          "attributes": {
            "NORMAL": 17,
            "POSITION": 16,
            "TEXCOORD_0": 18
          },
          "indices": 19,
          "material": 2,
          "mode": 4
        }
      ]
    },
    {
      "name": "Object_5",
      "primitives": [
        {
          "attributes": {
            "NORMAL": 21,
            "POSITION": 20
          },
          "indices": 22,
          "material": 1,
          "mode": 4
        }
      ]
    },
    {
      "name": "Object_6",
      "primitives": [
        {
          "attributes": {
            "NORMAL": 24,
            "POSITION": 23,
            "TEXCOORD_0": 25
          },
          "indices": 26,
          "material": 0,
          "mode": 4
        }
      ]
    }
  ],
  "nodes": [
    {
      "children": [
        1
      ],
      "matrix": [
        1.0,
        0.0,
        0.0,
        0.0,
        0.0,
        2.220446049250313e-16,
        -1.0,
        0.0,
        0.0,
        1.0,
        2.220446049250313e-16,
        0.0,
        1.557739359725474e-08,
        -6.129559437795251e-08,
        -5.3290705318111074e-15,
        1.0
      ],
      "name": "Sketchfab_model"
    },
    {
      "children": [
        2,
        5,
        8,
        11,
        14,
        17,
        20
      ],
      "name": "27a67e985d614166ab672e5d3b78d6d2.3ds"
    },
    {
      "children": [
        3
      ],
      "matrix": [
        0.2926543056964874,
        0.0,
        -0.07363324612379074,
        0.0,
        0.07363324612379074,
        -3.597443054559335e-08,
        0.2926543056964874,
        0.0,
        -1.6174897865539606e-08,
        -0.7236526608467102,
        -8.626611958106878e-08,
        0.0,
        8.523767471313477,
        0.2140820026397705,
        -2.2842912673950195,
        1.0
      ],
      "name": "ChamferBo1"
    },
    {
      "children": [
        4
      ],
      "matrix": [
        3.2135659952476225,
        0.8085488279421283,
        -1.4738541897035504e-08,
        0.0,
        -1.909223353948846e-15,
        -1.448474195804111e-07,
        -1.381878426080749,
        0.0,
        -0.80854882794213,
        3.213565995247616,
        -5.8578128398741056e-08,
        0.0,
        -29.23865032414149,
        0.4488385725691879,
        0.2958352926784577,
        1.0
      ],
      "name": "3DSMeshMatrix"
    },
    {
      "mesh": 0,
      "name": "Object_4"
    },
    {
      "children": [
        6
      ],
      "matrix": [
        -1.1920928955078125e-07,
        -1.0,
        2.9802322387695313e-08,
        0.0,
        -2.9802322387695313e-08,
        5.960464477539063e-08,
        1.0,
        0.0,
        -1.0,
        1.1920928955078125e-07,
        0.0,
        0.0,
        8.032173156738281,
        0.0,
        0.0,
        1.0
      ],
      "name": "OilTank001"
    },
    {
      "children": [
        7
      ],
      "matrix": [
        -1.6292068494294222e-07,
        -4.3711388286736685e-08,
        -0.9999999999999716,
        0.0,
        -0.9999999999999735,
        7.121489319482232e-15,
        1.629206849429419e-07,
        0.0,
        3.238973514674131e-22,
        0.9999999999999981,
        -4.371138828673784e-08,
        0.0,
        1.3086071522761151e-06,
        3.510974396404905e-07,
        8.032173156738052,
        1.0
      ],
      "name": "3DSMeshMatrix"
    },
    {
      "mesh": 1,
      "name": "Object_7"
    },
    {
      "children": [
        9
      ],
      "matrix": [
        0.9778003692626953,
        7.450580596923828e-09,
        -0.2095385491847992,
        0.0,
        0.2095385491847992,
        -1.1920928955078125e-07,
        0.9778003692626953,
        0.0,
        -2.2351741790771484e-08,
        -1.0,
        -1.1920928955078125e-07,
        0.0,
        9.242402076721191,
        0.7155262231826782,
        -1.061718225479126,
        1.0
      ],
      "name": "ChamferBo0"
    },
    {
      "children": [
        10
      ],
      "matrix": [
        0.9778004088831691,
        0.2095385427741396,
        -9.15922060423766e-09,
        0.0,
        -3.8378533444500314e-18,
        -4.371138739054077e-08,
        -0.9999999999999979,
        0.0,
        -0.20953854277414,
        0.9778004088831672,
        -4.274101333962323e-08,
        0.0,
        -9.259695419484274,
        -0.8984909166199961,
        0.7155262624569634,
        1.0
      ],
      "name": "3DSMeshMatrix"
    },
    {
      "mesh": 2,
      "name": "Object_10"
    },
    {
      "children": [
        12
      ],
      "matrix": [
        0.9697751998901367,
        0.0,
        -0.2440001666545868,
        0.0,
        0.2440001666545868,
        -1.1920928955078125e-07,
        0.9697751998901367,
        0.0,
        -2.2351741790771484e-08,
        -1.0,
        -1.1920928955078125e-07,
        0.0,
        8.876768112182617,
        0.32117071747779846,
        -3.1193394660949707,
        1.0
      ],
      "name": "ChamferBox"
    },
    {
      "children": [
        13
      ],
      "matrix": [
        0.969775180834616,
        0.24400016186012444,
        -1.0665585817094802e-08,
        0.0,
        3.156616343272797e-17,
        -4.371138726977175e-08,
        -0.9999999999999979,
        0.0,
        -0.2440001618601249,
        0.9697751808346141,
        -4.239021948030331e-08,
        0.0,
        -9.369588735842697,
        0.8591251526882671,
        0.3211706799242453,
        1.0
      ],
      "name": "3DSMeshMatrix"
    },
    {
      "mesh": 3,
      "name": "Object_13"
    },
    {
      "children": [
        15
      ],
      "matrix": [
        -1.1920928955078125e-07,
        -1.0,
        2.9802322387695313e-08,
        0.0,
        -2.9802322387695313e-08,
        5.960464477539063e-08,
        1.0,
        0.0,
        -1.0,
        1.1920928955078125e-07,
        0.0,
        0.0,
        10.840185165405273,
        0.022890089079737663,
        -0.03678646683692932,
        1.0
      ],
      "name": "ChamferCyl"
    },
    {
      "children": [
        16
      ],
      "matrix": [
        -1.6292068494294222e-07,
        -4.3711388286736685e-08,
        -0.9999999999999716,
        0.0,
        -0.9999999999999735,
        7.121489319482232e-15,
        1.629206849429419e-07,
        0.0,
        3.238973514674131e-22,
        0.9999999999999981,
        -4.371138828673784e-08,
        0.0,
        0.02289185517012911,
        0.03678694067647195,
        10.840185160067708,
        1.0
      ],
      "name": "3DSMeshMatrix"
    },
    {
      "mesh": 4,
      "name": "Object_16"
    },
    {
      "children": [
        18
      ],
      "matrix": [
        0.779415488243103,
        0.0,
        0.0,
        0.0,
        0.0,
        -1.1920928955078125e-07,
        0.9999999403953552,
        0.0,
        0.0,
        -0.9999999403953552,
        -1.1920928955078125e-07,
        0.0,
        3.9258270263671875,
        1.2253187264832377e-07,
        -2.8032026290893555,
        1.0
      ],
      "name": "Line001"
    },
    {
      "children": [
        19
      ],
      "matrix": [
        1.283012738499874,
        1.684780579016738e-23,
        6.281318012517786e-17,
        0.0,
        -6.281312918359415e-17,
        -2.6822083754040376e-07,
        -0.9999998807906527,
        0.0,
        8.623003147769008e-24,
        0.9999998807906527,
        -2.6822083754040376e-07,
        0.0,
        -5.036886083976182,
        2.803202294921433,
        -6.293454991750232e-07,
        1.0
      ],
      "name": "3DSMeshMatrix"
    },
    {
      "mesh": 5,
      "name": "Object_19"
    },
    {
      "children": [
        21
      ],
      "matrix": [
        -1.1920928955078125e-07,
        -1.0,
        2.9802322387695313e-08,
        0.0,
        -2.9802322387695313e-08,
        5.960464477539063e-08,
        1.0,
        0.0,
        -1.0,
        1.1920928955078125e-07,
        0.0,
        0.0,
        -4.633715988688891e-08,
        0.0,
        0.0,
        1.0
      ],
      "name": "Torus001"
    },
    {
      "children": [
        22
      ],
      "matrix": [
        -1.6292068494294222e-07,
        -4.3711388286736685e-08,
        -0.9999999999999716,
        0.0,
        -0.9999999999999735,
        7.121489319482232e-15,
        1.629206849429419e-07,
        0.0,
        3.238973514674131e-22,
        0.9999999999999981,
        -4.371138828673784e-08,
        0.0,
        -7.549281827082568e-15,
        -2.025461587920401e-15,
        -4.6337159886887595e-08,
        1.0
      ],
      "name": "3DSMeshMatrix"
    },
    {
      "mesh": 6,
      "name": "Object_22"
    }
  ],
  "scene": 0,
  "scenes": [
    {
      "name": "Sketchfab_Scene",
      "nodes": [
        0
      ]
    }
  ]
}
